<?xml version="1.0" encoding="utf-8"?>
<svg version="1.1" id="Layer_1" xmlns="http://www.w3.org/2000/svg" xmlns:xlink="http://www.w3.org/1999/xlink" x="0px" y="0px"
	 viewBox="0 0 183.5 73.4" style="enable-background:new 0 0 183.5 73.4;" xml:space="preserve">
<style type="text/css">
	.st0{fill-rule:evenodd;clip-rule:evenodd;stroke:#CB373A;stroke-width:2;stroke-linecap:round;stroke-linejoin:round;}
	.st1{fill-rule:evenodd;clip-rule:evenodd;fill:#FFFFFF;}
</style>
<g>
	<path class="st0" d="M1,2.5c4.5,15.3,28.4,48.9,69.9,62.2c24,8.9,56.4,11.4,86.1,0c14.4-5.5,20.9-13.4,23.7-21.1
		c5.5-17.2-3.1-26.7-3.9-27.7S158.6-8.2,133.5,5.2c-4.9,3.1-9.4,6.7-13.6,10.8c-26.1,24.4-78.8,0.6-84.2-1.8c-0.1,0-0.2,0-0.1,0.2
		l20.2,20.4C36.1,35.4,13,16.7,1.1,2.5C1,2.4,1,2.4,1,2.5z"/>
	<path class="st0" d="M122.7,49.4c0,0,9.7,17.7,31.5,16.3"/>
	<path class="st1" d="M167.9,40.3c-0.7,7.4-7.5,13.4-15.2,13.5s-13.4-5.9-12.7-13.3s7.5-13.4,15.2-13.5S168.6,32.9,167.9,40.3z"/>
</g>
</svg>
